<svg xmlns="http://www.w3.org/2000/svg" width="300" height="300" viewBox="0 0 79.375 79.375">
   <path d="M12.769 12.712a38.196 38.196 0 0 0 0 54.017 38.196 38.196 0 0 0 54.017 0 38.196 38.196 0 0 0 0-54.017 38.196 38.196 0 0 0-54.017 0zM9.254 39.72l2.152-2.153 2.152-2.152 13.11 13.11 13.11 13.109 13.109-13.11 13.11-13.109 2.152 2.152 2.152 2.153-15.262 15.261-15.262 15.262-15.261-15.262Zm8.74-8.74 10.891-10.892L39.777 9.197 50.67 20.09l10.892 10.892-2.152 2.152-2.152 2.153-8.74-8.74-8.74-8.74-6.587 6.588-6.587 6.587 6.587 6.587 6.587 6.588 2.218-2.218 2.217-2.217-4.37-4.37-4.37-4.37 2.153-2.152 2.152-2.153L46.3 33.2l6.523 6.522-6.523 6.522-6.522 6.522-10.892-10.892z" />
    <style>
        path {
            fill: #000;
            stroke-width: 0.184529;
        }
        @media (prefers-color-scheme: dark) {
            path {
                fill: #fff;
            }
        }
    </style>
</svg>